<?xml version="1.0" encoding="UTF-8"?>
<svg version="1.1" xmlns="http://www.w3.org/2000/svg" width="112" height="90">
<path d="M0 0 C36.96 0 73.92 0 112 0 C112 29.7 112 59.4 112 90 C75.04 90 38.08 90 0 90 C0 60.3 0 30.6 0 0 Z " fill="#050509" transform="translate(0,0)"/>
<path d="M0 0 C9.86738193 6.26795959 15.68846061 15.30244506 18.875 26.375 C20.28765159 38.87153329 18.11389698 48.74914995 10.89453125 59.2578125 C5.58614824 65.736167 -0.45673167 69.2048779 -8.125 72.375 C-8.91132812 72.74882813 -9.69765625 73.12265625 -10.5078125 73.5078125 C-18.88403931 76.28321899 -29.67592219 75.10947913 -37.6640625 71.703125 C-48.94382791 65.61563256 -56.23877385 56.74505582 -60.375 44.75 C-62.78516745 33.59749789 -61.72761426 22.57512923 -55.546875 12.90625 C-41.94437728 -5.47550367 -20.48819586 -11.20934728 0 0 Z " fill="#5377CD" transform="translate(77.125,11.625)"/>
<path d="M0 0 C3.79692894 1.86969986 6.11779509 4.23559018 8 8 C9.20610687 21.48091603 9.20610687 21.48091603 6.765625 26.578125 C3.46193317 30.47059359 0.85875859 31.82765032 -4.328125 32.30859375 C-16.21791918 32.69939376 -16.21791918 32.69939376 -20.375 29.125 C-25.03858096 24.17442944 -24.54683428 18.41050224 -24.42578125 11.953125 C-23.92336228 7.28846449 -22.88858435 5.19402852 -19.5078125 2.06640625 C-14.20146802 -1.6865265 -6.20553979 -0.66838324 0 0 Z " fill="#5376CD" transform="translate(64,30)"/>
<path d="M0 0 C3.79692894 1.86969986 6.11779509 4.23559018 8 8 C9.20610687 21.48091603 9.20610687 21.48091603 6.765625 26.578125 C3.46193317 30.47059359 0.85875859 31.82765032 -4.328125 32.30859375 C-16.21791918 32.69939376 -16.21791918 32.69939376 -20.375 29.125 C-25.03858096 24.17442944 -24.54683428 18.41050224 -24.42578125 11.953125 C-23.92336228 7.28846449 -22.88858435 5.19402852 -19.5078125 2.06640625 C-14.20146802 -1.6865265 -6.20553979 -0.66838324 0 0 Z M-18.3125 5.6875 C-20.96867053 10.90146437 -20.85142177 16.26709339 -20 22 C-18.22851411 25.71136326 -18.22851411 25.71136326 -15 28 C-12.89946284 28.14901491 -10.79312175 28.22138453 -8.6875 28.25 C-7.55699219 28.27578125 -6.42648438 28.3015625 -5.26171875 28.328125 C-1.66993423 27.96679578 0.16847066 27.20745821 3 25 C4.1066598 21.68002061 4.20240272 19.05693373 4.25 15.5625 C4.27578125 14.42941406 4.3015625 13.29632813 4.328125 12.12890625 C3.97003134 8.71422741 3.41768501 7.38944103 1 5 C-5.18082621 2.9397246 -12.47587817 2.71412661 -18.3125 5.6875 Z " fill="#030509" transform="translate(64,30)"/>
</svg>
